<svg height="512pt" viewBox="0 0 512 512" width="512pt" xmlns="http://www.w3.org/2000/svg"><path d="m148 50h216v412h-216zm0 0" fill="#fff"/><path d="m148 375.054688 75.027344-75.027344 141.972656 141.972656-1 20h-216zm0 0" fill="#a0e557"/><path d="m133.0625 10h245.875v40h-245.875zm0 0" fill="#4dbaf6"/><path d="m249.269531 321.269531 80.78125-80.78125 31.8125 31.8125v162.199219zm0 0" fill="#a0e557"/><path d="m133.0625 462h245.875v40h-245.875zm0 0" fill="#4dbaf6"/><path d="m256.25 170.433594c0 16.226562-13.15625 29.382812-29.382812 29.382812-16.226563 0-29.382813-13.15625-29.382813-29.382812 0-16.226563 13.15625-29.382813 29.382813-29.382813 16.226562 0 29.382812 13.15625 29.382812 29.382813zm0 0" fill="#ffb954"/><path d="m148 256c2.628906 0 5.210938-1.070312 7.070312-2.929688 1.859376-1.859374 2.929688-4.441406 2.929688-7.070312s-1.070312-5.210938-2.929688-7.070312c-1.859374-1.859376-4.441406-2.929688-7.070312-2.929688s-5.210938 1.070312-7.070312 2.929688c-1.859376 1.859374-2.929688 4.441406-2.929688 7.070312s1.070312 5.210938 2.929688 7.070312c1.859374 1.859376 4.441406 2.929688 7.070312 2.929688zm0 0"/><path d="m378.9375 0h-245.875c-5.523438 0-10 4.476562-10 10v40c0 5.523438 4.476562 10 10 10h4.9375v146c0 5.523438 4.476562 10 10 10s10-4.476562 10-10v-146h156v58.34375c0 5.519531 4.476562 10 10 10s10-4.480469 10-10v-58.34375h20v190.296875l-16.878906-16.882813c-3.90625-3.902343-10.238282-3.902343-14.144532 0l-76.207031 76.210938-16.671875-16.667969c-3.902344-3.90625-10.234375-3.90625-14.140625 0l-57.957031 57.953125v-64.910156c0-5.523438-4.476562-10-10-10s-10 4.476562-10 10v166h-4.9375c-5.523438 0-10 4.476562-10 10v40c0 5.523438 4.476562 10 10 10h245.875c5.523438 0 10-4.476562 10-10v-40c0-5.523438-4.476562-10-10-10h-4.9375v-392h4.9375c5.523438 0 10-4.476562 10-10v-40c0-5.523438-4.476562-10-10-10zm-48.886719 254.628906 23.949219 23.949219v138.277344l-93.089844-93.089844zm38.886719 237.371094h-225.875v-20h225.875zm-210.9375-40v-72.804688l65.027344-65.023437 130.972656 130.972656v6.855469zm-10-412h-4.9375v-20h225.875v20zm0 0"/><path d="m50.113281 87.238281c-5.523437 0-10 4.480469-10 10v14.453125c0 5.523438 4.476563 10 10 10 5.523438 0 10-4.476562 10-10v-14.453125c0-5.519531-4.476562-10-10-10zm0 0"/><path d="m90.78125 126.746094h-16.386719c-5.523437 0-10 4.476562-10 10 0 5.523437 4.476563 10 10 10h16.386719c5.523438 0 10-4.476563 10-10 0-5.523438-4.476562-10-10-10zm0 0"/><path d="m25.253906 126.746094h-15.253906c-5.523438 0-10 4.476562-10 10 0 5.523437 4.476562 10 10 10h15.253906c5.523438 0 10-4.476563 10-10 0-5.523438-4.476562-10-10-10zm0 0"/><path d="m50.113281 154.613281c-5.523437 0-10 4.480469-10 10v11.640625c0 5.519532 4.476563 10 10 10 5.523438 0 10-4.480468 10-10v-11.640625c0-5.519531-4.476562-10-10-10zm0 0"/><path d="m502 387.488281h-14.453125c-5.523437 0-10 4.480469-10 10 0 5.523438 4.476563 10 10 10h14.453125c5.523438 0 10-4.476562 10-10 0-5.519531-4.476562-10-10-10zm0 0"/><path d="m462.492188 346.824219c-5.523438 0-10 4.476562-10 10v16.382812c0 5.523438 4.476562 10 10 10 5.523437 0 10-4.476562 10-10v-16.382812c0-5.523438-4.476563-10-10-10zm0 0"/><path d="m462.492188 412.351562c-5.523438 0-10 4.476563-10 10v15.253907c0 5.519531 4.476562 10 10 10 5.523437 0 10-4.480469 10-10v-15.253907c0-5.523437-4.476563-10-10-10zm0 0"/><path d="m434.625 387.488281h-11.640625c-5.519531 0-10 4.480469-10 10 0 5.523438 4.480469 10 10 10h11.640625c5.523438 0 10-4.476562 10-10 0-5.519531-4.476562-10-10-10zm0 0"/><path d="m266.25 170.433594c0-21.714844-17.667969-39.382813-39.382812-39.382813-21.714844 0-39.378907 17.667969-39.378907 39.382813s17.664063 39.382812 39.378907 39.382812c21.714843 0 39.382812-17.667968 39.382812-39.382812zm-58.765625 0c0-10.6875 8.695313-19.382813 19.382813-19.382813s19.382812 8.695313 19.382812 19.382813-8.695312 19.382812-19.382812 19.382812-19.382813-8.695312-19.382813-19.382812zm0 0"/><path d="m331.070312 164.910156c1.859376-1.859375 2.929688-4.429687 2.929688-7.070312 0-2.628906-1.070312-5.210938-2.929688-7.070313-1.859374-1.859375-4.441406-2.929687-7.070312-2.929687s-5.210938 1.070312-7.070312 2.929687c-1.859376 1.859375-2.929688 4.441407-2.929688 7.070313 0 2.640625 1.070312 5.210937 2.929688 7.070312 1.859374 1.859375 4.441406 2.929688 7.070312 2.929688s5.210938-1.070313 7.070312-2.929688zm0 0"/></svg>