<svg id="Filled" height="512" viewBox="0 0 512 512" width="512" xmlns="http://www.w3.org/2000/svg"><path d="m32 128h448v336h-448z" fill="#eb423f"/><path d="m344 48-64 40v40h128c0-44.183-28.654-80-64-80z" fill="#e9eef2"/><path d="m168 48 64 40v40h-128c0-44.183 28.654-80 64-80z" fill="#e9eef2"/><path d="m232 88h48v376h-48z" fill="#dcdee0"/><path d="m24 128h464v80h-464z" fill="#c7312e"/><path d="m216 128h80v80h-80z" fill="#e9eef2"/><path d="m121.373 257.373h45.255v45.255h-45.255z" fill="#e9eef2" transform="matrix(.707 -.707 .707 .707 -155.813 183.833)"/><path d="m488 120h-72.3c-3.318-44.788-34.2-80-71.7-80a8 8 0 0 0 -4.24 1.216l-62.055 38.784h-43.405l-62.06-38.784a8 8 0 0 0 -4.24-1.216c-37.5 0-68.381 35.212-71.7 80h-72.3a8 8 0 0 0 -8 8v80a8 8 0 0 0 8 8v248a8 8 0 0 0 8 8h448a8 8 0 0 0 8-8v-248a8 8 0 0 0 8-8v-80a8 8 0 0 0 -8-8zm-8 80h-176v-64h176zm-272-64v64h-56v-64zm80 0v64h-64v-64zm-16 80v240h-32v-240zm74.206-159.945c27.776 1.39 50.412 28.92 53.438 63.945h-85.755l33.689-16.845v-.006a7.993 7.993 0 1 0 -7.15-14.3v-.006l-52.428 26.213v-22.622zm-74.206 39.945v24h-32v-24zm-106.206-39.945 58.206 36.379v22.622l-52.422-26.211v.006a7.993 7.993 0 1 0 -7.15 14.3v.006l33.683 16.843h-85.755c3.026-35.025 25.662-62.555 53.438-63.945zm-133.794 79.945h104v64h-104zm8 80h96v28.686l-29.657 29.657a8 8 0 0 0 0 11.314l32 32a8 8 0 0 0 11.314 0l32-32a8 8 0 0 0 0-11.314l-29.657-29.657v-28.686h72v240h-184zm104 43.314 20.687 20.686-20.687 20.686-20.687-20.686zm328 196.686h-184v-240h184z"/></svg>