<svg id="Capa_1" enable-background="new 0 0 512.002 512.002" height="512" viewBox="0 0 512.002 512.002" width="512" xmlns="http://www.w3.org/2000/svg"><g><path d="m504.161 224.06h-496.319v213.058c0 37.215 30.169 67.384 67.384 67.384h361.551c37.215 0 67.384-30.169 67.384-67.384z" fill="#fbf1cf"/><path d="m7.842 437.118c0 37.215 30.169 67.384 67.384 67.384h146.97c-44.536-35.676-57.996-108.815-54.772-197.409 0 0-56.518-44.269-106.474-83.033h-53.108z" fill="#f5e2a2"/><path d="m7.842 224.06 225.256 127.28c14.213 8.031 31.594 8.031 45.807 0l225.256-127.28c0-23.478-10.863-45.635-29.423-60.015l-188.877-146.329c-17.578-13.618-42.143-13.618-59.72 0l-188.877 146.33c-18.56 14.379-29.422 36.536-29.422 60.014z" fill="#a2ddfd"/><path d="m233.097 303.319-213.118-120.421c-7.823 12.123-12.137 26.378-12.137 41.16v.003l225.255 127.279c14.213 8.031 31.594 8.031 45.807 0l225.257-127.28c0-14.784-4.314-29.039-12.138-41.163l-213.118 120.422c-14.214 8.031-31.595 8.031-45.808 0z" fill="#7acdf9"/><path d="m388.445 75.036h-264.888c-14.085 0-25.504 11.419-25.504 25.504v205.945l160.934 77.451 154.962-77.451v-205.945c0-14.085-11.418-25.504-25.504-25.504z" fill="#fbf1cf"/><path d="m413.949 306.486v-79.473l-135.045 76.306c-14.213 8.031-31.594 8.031-45.807 0l-135.044-76.306v79.473l160.935 77.451z" fill="#f5e2a2"/><g><path d="m256.001 151.431c-1.919 0-3.839-.732-5.304-2.197l-17.453-17.453c-2.929-2.929-2.929-7.678 0-10.606 2.93-2.929 7.678-2.929 10.607 0l12.149 12.15 12.149-12.15c2.93-2.929 7.678-2.929 10.607 0s2.929 7.678 0 10.606l-17.453 17.453c-1.463 1.465-3.383 2.197-5.302 2.197z" fill="#7acdf9"/><path d="m256.001 176.792c-4.143 0-7.5-3.358-7.5-7.5v-40.922c0-4.142 3.357-7.5 7.5-7.5s7.5 3.358 7.5 7.5v40.921c0 4.143-3.357 7.501-7.5 7.501z" fill="#a2ddfd"/><path d="m176.762 189.803c-3.311 0-6.342-2.21-7.239-5.561-1.072-4.001 1.302-8.114 5.303-9.186l16.597-4.447-4.446-16.597c-1.072-4.001 1.302-8.113 5.303-9.186 4.001-1.07 8.114 1.303 9.186 5.304l6.388 23.841c1.072 4.001-1.302 8.113-5.303 9.186l-23.841 6.388c-.652.174-1.306.258-1.948.258z" fill="#7acdf9"/><path d="m222.563 196.095c-1.272 0-2.563-.324-3.743-1.006l-35.438-20.461c-3.587-2.071-4.816-6.658-2.745-10.245 2.071-3.588 6.659-4.818 10.245-2.745l35.438 20.461c3.587 2.071 4.816 6.658 2.745 10.245-1.39 2.406-3.911 3.751-6.502 3.751z" fill="#a2ddfd"/><path d="m194.225 271.21c-.643 0-1.296-.083-1.946-.257-4.001-1.072-6.375-5.185-5.303-9.186l4.446-16.597-16.597-4.447c-4.001-1.072-6.375-5.185-5.303-9.186 1.071-4.001 5.184-6.372 9.186-5.303l23.841 6.388c4.001 1.072 6.375 5.185 5.303 9.186l-6.388 23.841c-.898 3.35-3.928 5.561-7.239 5.561z" fill="#7acdf9"/><path d="m187.138 255.149c-2.592 0-5.112-1.345-6.502-3.752-2.071-3.587-.842-8.174 2.745-10.245l35.438-20.461c3.585-2.071 8.173-.843 10.245 2.745 2.071 3.587.842 8.174-2.745 10.245l-35.438 20.461c-1.181.682-2.471 1.007-3.743 1.007z" fill="#a2ddfd"/><path d="m273.454 296.801c-1.919 0-3.839-.732-5.304-2.197l-12.149-12.15-12.149 12.15c-2.93 2.929-7.678 2.929-10.607 0s-2.929-7.678 0-10.606l17.453-17.453c2.93-2.929 7.678-2.929 10.607 0l17.453 17.453c2.929 2.929 2.929 7.678 0 10.606-1.465 1.465-3.385 2.197-5.304 2.197z" fill="#7acdf9"/><path d="m256.001 294.909c-4.143 0-7.5-3.358-7.5-7.5v-40.921c0-4.142 3.357-7.5 7.5-7.5s7.5 3.358 7.5 7.5v40.921c0 4.142-3.357 7.5-7.5 7.5z" fill="#a2ddfd"/><path d="m317.777 271.21c-3.312 0-6.342-2.21-7.239-5.561l-6.388-23.841c-1.072-4.001 1.302-8.113 5.303-9.186l23.841-6.388c4.002-1.069 8.114 1.302 9.186 5.303s-1.302 8.114-5.303 9.186l-16.597 4.447 4.446 16.597c1.072 4.001-1.302 8.113-5.303 9.186-.65.173-1.303.257-1.946.257z" fill="#7acdf9"/><path d="m324.864 255.149c-1.272 0-2.563-.324-3.743-1.006l-35.439-20.461c-3.587-2.071-4.816-6.658-2.745-10.245 2.071-3.588 6.659-4.818 10.245-2.745l35.439 20.461c3.587 2.071 4.816 6.658 2.745 10.245-1.389 2.405-3.91 3.751-6.502 3.751z" fill="#a2ddfd"/><path d="m335.24 189.803c-.643 0-1.296-.083-1.946-.257l-23.841-6.388c-4.001-1.072-6.375-5.185-5.303-9.186l6.388-23.841c1.072-4 5.185-6.376 9.186-5.304s6.375 5.185 5.303 9.186l-4.446 16.597 16.597 4.447c4.001 1.072 6.375 5.185 5.303 9.186-.899 3.35-3.929 5.559-7.241 5.56z" fill="#7acdf9"/><g fill="#a2ddfd"><path d="m289.44 196.095c-2.592 0-5.112-1.345-6.502-3.751-2.071-3.587-.842-8.174 2.745-10.245l35.439-20.461c3.586-2.071 8.173-.842 10.245 2.745 2.071 3.587.842 8.174-2.745 10.245l-35.439 20.461c-1.181.681-2.471 1.006-3.743 1.006z"/><path d="m256.001 253.988c-1.295 0-2.59-.335-3.75-1.005l-33.427-19.299c-2.32-1.34-3.75-3.815-3.75-6.495v-38.599c0-2.68 1.43-5.155 3.75-6.495l33.427-19.299c2.32-1.34 5.18-1.34 7.5 0l33.427 19.299c2.32 1.34 3.75 3.815 3.75 6.495v38.598c0 2.68-1.43 5.155-3.75 6.495l-33.427 19.299c-1.16.67-2.455 1.006-3.75 1.006zm-25.927-31.129 25.927 14.969 25.927-14.969v-29.938l-25.927-14.969-25.927 14.969z"/></g></g><path d="m278.905 351.34c-14.213 8.031-31.594 8.031-45.807 0l-225.256-127.28v48.514l225.256 127.279c14.213 8.031 31.594 8.031 45.807 0l225.256-127.279v-48.514z" fill="#6ad6bd"/><path d="m167.206 314.108-159.364-90.048v48.514l160.028 90.423c-.927-15.592-1.114-31.941-.664-48.889z" fill="#2bbcb9"/><path d="m439.987 443.863-74.333-42.001c-3.607-2.038-8.182-.767-10.219 2.84-2.038 3.606-.767 8.182 2.84 10.219l74.333 42.001c3.626 2.048 8.192.747 10.219-2.84 2.038-3.606.767-8.181-2.84-10.219zm-293.639-42.001-74.333 42.001c-3.606 2.038-4.878 6.613-2.84 10.219 2.031 3.595 6.601 4.884 10.219 2.84l74.333-42.001c3.606-2.038 4.878-6.613 2.84-10.219-2.039-3.608-6.613-4.879-10.219-2.84zm332.983-243.745-57.882-44.844v-12.732c0-18.199-14.806-33.004-33.004-33.004h-26.031l-71.96-55.75c-20.285-15.715-48.62-15.715-68.907.001l-71.959 55.75h-26.031c-18.198 0-33.004 14.806-33.004 33.004v12.732l-31.639 24.512c-3.274 2.537-3.872 7.248-1.335 10.522 2.544 3.285 7.257 3.865 10.522 1.335l22.451-17.394v129.932l-75.066-42.416c1.17-18.806 9.98-36.247 24.594-48.366 3.188-2.645 3.63-7.373.986-10.561-2.644-3.189-7.372-3.63-10.561-.986-19.526 16.191-30.165 39.78-30.165 64.208v213.058c0 41.291 33.593 74.884 74.884 74.884h345.633c4.143 0 7.5-3.358 7.5-7.5s-3.357-7.5-7.5-7.5h-345.631c-33.019 0-59.884-26.864-59.884-59.884v-151.691l214.066 120.957c16.401 9.268 36.783 9.269 53.186 0l214.066-120.957v151.691c0 26.381-16.908 49.366-42.073 57.193-3.955 1.23-6.164 5.434-4.934 9.389 1.231 3.961 5.439 6.162 9.389 4.934 31.473-9.789 52.618-38.529 52.618-71.516 0-41.362 0-171.802 0-213.058-.07-.293 1.695-39.584-32.329-65.943zm-57.882-25.868 48.694 37.726c15.468 11.983 25.125 30.352 26.374 49.79l-75.069 42.417v-129.933zm-190.716-108.604c14.877-11.526 35.657-11.525 50.534 0l56.654 43.892h-163.841zm-125.18 76.896c0-9.928 8.076-18.004 18.004-18.004h264.889c9.928 0 18.004 8.077 18.004 18.004v170.116l-131.235 74.153c-11.852 6.697-26.576 6.697-38.428 0l-131.234-74.153zm391.107 167.657-221.445 125.126c-11.853 6.696-26.578 6.696-38.428 0l-221.445-125.126v-31.286c12.247 6.92 201.817 114.035 214.066 120.957 16.401 9.268 36.781 9.27 53.186 0 12.647-7.146 183.333-103.591 214.066-120.957z"/></g></svg>