<?xml version="1.0" encoding="iso-8859-1"?>
<!-- Generator: Adobe Illustrator 19.0.0, SVG Export Plug-In . SVG Version: 6.00 Build 0)  -->
<svg version="1.1" id="Layer_1" xmlns="http://www.w3.org/2000/svg" xmlns:xlink="http://www.w3.org/1999/xlink" x="0px" y="0px"
	 viewBox="0 0 512 512" style="enable-background:new 0 0 512 512;" xml:space="preserve">
<path style="fill:#E8E8E8;" d="M447.327,341.141H64.672c-17.865,0-32.347-14.482-32.347-32.347V81.028
	c0-17.865,14.482-32.347,32.347-32.347h382.655c17.865,0,32.347,14.482,32.347,32.347v227.767
	C479.673,326.658,465.191,341.141,447.327,341.141z"/>
<g>
	<rect x="212.704" y="10.199" style="fill:#F07057;" width="86.581" height="38.482"/>
	<rect x="212.704" y="341.143" style="fill:#F07057;" width="86.581" height="160.658"/>
</g>
<path d="M447.327,38.482H309.49V10.199C309.49,4.566,304.923,0,299.291,0h-86.584c-5.632,0-10.199,4.566-10.199,10.199v28.282
	H64.672c-23.46,0-42.546,19.086-42.546,42.546v227.767c0,23.459,19.086,42.546,42.546,42.546h137.837v150.461
	c0,5.633,4.567,10.199,10.199,10.199h86.584c5.632,0,10.199-4.566,10.199-10.199V351.34h137.837
	c23.46,0,42.546-19.086,42.546-42.546V81.028C489.873,57.567,470.788,38.482,447.327,38.482z M222.907,20.398h66.186v18.083h-66.186
	L222.907,20.398L222.907,20.398z M289.092,491.602h-66.186V351.34h66.186V491.602z M447.327,58.88
	c12.213,0,22.148,9.935,22.148,22.148v227.767c0,12.213-9.935,22.148-22.148,22.148H64.672c-12.213,0-22.148-9.935-22.148-22.148
	V81.028c0-12.213,9.935-22.148,22.148-22.148H447.327z"/>
<path d="M271.298,399.809c5.632,0,10.199-4.566,10.199-10.199v-4.08c0-5.633-4.567-10.199-10.199-10.199
	c-5.632,0-10.199,4.566-10.199,10.199v4.08C261.099,395.243,265.666,399.809,271.298,399.809z"/>
<path d="M271.298,483.442c5.632,0,10.199-4.566,10.199-10.199v-54.056c0-5.633-4.567-10.199-10.199-10.199
	c-5.632,0-10.199,4.566-10.199,10.199v54.056C261.099,478.876,265.666,483.442,271.298,483.442z"/>
<path d="M165.82,108.981c0-3.305,3.51-4.956,7.022-4.956h35.831c3.407,0,4.853,3.614,4.853,6.918c0,3.821-1.755,7.124-4.853,7.124
	h-26.745v17.451h15.594c3.098,0,4.853,2.994,4.853,6.299c0,2.787-1.446,6.092-4.853,6.092h-15.594v26.641
	c0,3.304-4.026,4.956-8.053,4.956c-4.028,0-8.053-1.652-8.053-4.956v-65.57H165.82z"/>
<path d="M225.709,155.756v-27.363c0-17.761,11.048-24.369,25.299-24.369c14.249,0,25.4,6.608,25.4,24.369v27.363
	c0,17.761-11.152,24.369-25.4,24.369C236.757,180.125,225.709,173.517,225.709,155.756z M260.301,128.393
	c0-7.125-3.512-10.327-9.292-10.327c-5.783,0-9.192,3.202-9.192,10.327v27.363c0,7.125,3.409,10.326,9.192,10.326
	c5.781,0,9.292-3.201,9.292-10.326V128.393L260.301,128.393z"/>
<path d="M294.99,108.876c0-2.581,1.962-4.853,4.956-4.853h21.374c14.147,0,25.402,5.266,25.402,22.098
	c0,11.565-5.267,18.174-12.494,20.961l12.598,22.821c0.412,0.619,0.516,1.342,0.516,1.858c0,4.028-5.371,8.364-10.12,8.364
	c-2.065,0-4.028-0.826-5.164-2.994l-14.147-27.466h-6.815v24.885c0,3.304-4.026,4.956-8.053,4.956s-8.053-1.652-8.053-4.956
	L294.99,108.876L294.99,108.876z M311.097,118.067v19.206h10.223c5.783,0,9.292-2.374,9.292-9.604c0-7.228-3.51-9.604-9.292-9.604
	h-10.223V118.067z"/>
<path d="M167.994,262.28c0-12.494-32.733-10.327-32.733-34.489c0-15.49,13.526-21.374,26.434-21.374
	c5.472,0,20.547,1.032,20.547,9.086c0,2.787-1.858,8.467-6.402,8.467c-3.718,0-5.679-3.924-14.145-3.924
	c-7.332,0-10.327,2.994-10.327,6.196c0,10.326,32.733,8.363,32.733,34.385c0,14.869-10.843,22.924-25.815,22.924
	c-13.526,0-24.884-6.608-24.884-13.423c0-3.511,3.098-8.673,7.02-8.673c4.855,0,7.952,7.641,17.556,7.641
	C162.727,269.094,167.994,267.235,167.994,262.28z"/>
<path d="M195.145,275.91c0-0.31,0.104-0.722,0.207-1.136l19.205-62.987c1.135-3.615,5.783-5.37,10.534-5.37
	c4.749,0,9.397,1.755,10.532,5.37l19.309,62.987c0.104,0.413,0.207,0.826,0.207,1.136c0,3.821-5.886,6.608-10.327,6.608
	c-2.581,0-4.646-0.826-5.265-2.995l-3.512-12.907h-21.787l-3.512,12.907c-0.619,2.168-2.683,2.995-5.265,2.995
	C201.031,282.518,195.145,279.73,195.145,275.91z M232.629,254.225l-7.538-27.673l-7.54,27.673H232.629z"/>
<path d="M276.404,282.518c-3.51,0-7.022-1.652-7.022-4.956v-65.673c0-3.408,4.028-4.853,8.055-4.853
	c4.026,0,8.053,1.445,8.053,4.853v56.585h23.542c3.097,0,4.648,3.511,4.648,7.022c0,3.511-1.55,7.021-4.648,7.021H276.404z"/>
<path d="M344.551,238.53h15.489c3.097,0,4.853,2.994,4.853,6.299c0,2.787-1.444,6.092-4.853,6.092h-15.489v17.554h27.673
	c3.097,0,4.853,3.305,4.853,7.125c0,3.305-1.446,6.918-4.853,6.918h-36.761c-3.51,0-7.022-1.652-7.022-4.956v-65.57
	c0-3.305,3.512-4.956,7.022-4.956h36.761c3.407,0,4.853,3.614,4.853,6.918c0,3.821-1.755,7.124-4.853,7.124h-27.673V238.53z"/>
<g>
</g>
<g>
</g>
<g>
</g>
<g>
</g>
<g>
</g>
<g>
</g>
<g>
</g>
<g>
</g>
<g>
</g>
<g>
</g>
<g>
</g>
<g>
</g>
<g>
</g>
<g>
</g>
<g>
</g>
</svg>
