<?xml version="1.0" encoding="iso-8859-1"?>
<!-- Generator: Adobe Illustrator 20.0.0, SVG Export Plug-In . SVG Version: 6.00 Build 0)  -->
<svg xmlns="http://www.w3.org/2000/svg" xmlns:xlink="http://www.w3.org/1999/xlink" version="1.1" id="Layer_1_1_" x="0px" y="0px" viewBox="0 0 64 64" style="enable-background:new 0 0 64 64;" xml:space="preserve" width="512" height="512">

<path style="fill:#367CCC;" d="M29,28c-0.798,0-1.559,0.16-2.257,0.444C28.137,29.885,29,31.842,29,34s-0.863,4.115-2.257,5.556  C27.441,39.84,28.202,40,29,40c3.309,0,6-2.691,6-6S32.309,28,29,28z"/>
<path style="fill:#367CCC;" d="M25,29.54c-1.224,1.099-2,2.688-2,4.46s0.776,3.36,2,4.46c1.224-1.099,2-2.688,2-4.46  S26.224,30.64,25,29.54z"/>
<path style="fill:#367CCC;" d="M34.209,48.388l2.149-2.775l-0.475-3.479c-0.062-0.452,0.19-0.889,0.613-1.062l3.25-1.324  l1.325-3.251c0.172-0.423,0.609-0.677,1.062-0.613l3.479,0.475l0.754-0.584L45.013,19H35H15H4.987L2.084,55h33.918l0.357-2.612  l-2.149-2.775C33.93,49.252,33.93,48.748,34.209,48.388z M20,46h-2v-2h2V46z M24,46h-2v-2h2V46z M28,46h-2v-2h2V46z M25,40.918  C23.822,41.602,22.458,42,21,42c-4.411,0-8-3.589-8-8s3.589-8,8-8c1.458,0,2.822,0.398,4,1.082C26.178,26.398,27.542,26,29,26  c4.411,0,8,3.589,8,8s-3.589,8-8,8C27.542,42,26.178,41.602,25,40.918z M32,46h-2v-2h2V46z"/>
<circle style="fill:#CC5636;" cx="45" cy="45" r="1"/>
<path style="fill:#367CCC;" d="M23.257,28.444C22.559,28.16,21.798,28,21,28c-3.309,0-6,2.691-6,6s2.691,6,6,6  c0.798,0,1.559-0.16,2.257-0.444C21.863,38.115,21,36.158,21,34S21.863,29.885,23.257,28.444z"/>
<path style="fill:#CC5636;" d="M59.603,45.757l0.427-3.125l-2.922-1.19c-0.249-0.102-0.447-0.3-0.549-0.549l-1.19-2.922  l-3.126,0.427c-0.265,0.04-0.535-0.036-0.748-0.2L49,36.265l-2.495,1.932c-0.212,0.165-0.482,0.239-0.748,0.2l-3.125-0.427  l-1.19,2.922c-0.102,0.249-0.3,0.447-0.549,0.549l-2.922,1.19l0.427,3.126c0.037,0.266-0.036,0.535-0.2,0.748L36.265,49l1.932,2.495  c0.165,0.212,0.237,0.482,0.2,0.748l-0.427,3.126l2.922,1.19c0.249,0.102,0.447,0.3,0.549,0.549l1.19,2.922l3.126-0.427  c0.045-0.006,0.09-0.009,0.135-0.009c0.22,0,0.436,0.073,0.612,0.209L49,61.735l2.495-1.932c0.212-0.165,0.482-0.237,0.748-0.2  l3.125,0.427l1.19-2.922c0.102-0.249,0.3-0.447,0.549-0.549l2.922-1.19l-0.427-3.126c-0.037-0.266,0.036-0.535,0.2-0.748L61.735,49  l-1.932-2.495C59.639,46.292,59.566,46.023,59.603,45.757z M42,45c0-1.654,1.346-3,3-3s3,1.346,3,3s-1.346,3-3,3S42,46.654,42,45z   M44.707,54.707l-1.414-1.414l10-10l1.414,1.414L44.707,54.707z M53,56c-1.654,0-3-1.346-3-3s1.346-3,3-3s3,1.346,3,3  S54.654,56,53,56z"/>
<circle style="fill:#CC5636;" cx="53" cy="53" r="1"/>
<path style="fill:#1F2833;" d="M63.791,48.388l-2.149-2.775l0.475-3.479c0.062-0.452-0.19-0.889-0.613-1.062l-3.251-1.324  l-1.324-3.251c-0.172-0.423-0.605-0.673-1.062-0.613l-3.479,0.475l-2.775-2.149c-0.36-0.279-0.864-0.279-1.225,0l-0.133,0.103  l-1.322-16.393C46.891,17.4,46.457,17,45.936,17H36v-6c0-6.065-4.935-11-11-11S14,4.935,14,11v6H4.064  c-0.521,0-0.955,0.4-0.997,0.919l-3.064,38c-0.022,0.278,0.072,0.553,0.262,0.759C0.454,56.883,0.721,57,1,57h35.674l3.074,1.252  l1.324,3.251c0.173,0.423,0.614,0.681,1.062,0.613l3.479-0.475l2.775,2.149C48.568,63.93,48.784,64,49,64s0.432-0.07,0.612-0.209  l2.775-2.149l3.479,0.475c0.448,0.062,0.889-0.191,1.062-0.613l1.324-3.251l3.251-1.324c0.423-0.172,0.675-0.609,0.613-1.062  l-0.475-3.479l2.149-2.775C64.07,49.252,64.07,48.748,63.791,48.388z M16,11c0-4.962,4.038-9,9-9s9,4.038,9,9v6H16V11z M36.002,55  H2.084l2.903-36H15h20h10.013l1.353,16.775l-0.754,0.584l-3.479-0.475c-0.452-0.064-0.889,0.19-1.062,0.613l-1.325,3.251  l-3.25,1.324c-0.423,0.172-0.675,0.609-0.613,1.062l0.475,3.479l-2.149,2.775c-0.279,0.36-0.279,0.864,0,1.225l2.149,2.775  L36.002,55z M59.803,51.495c-0.165,0.212-0.237,0.481-0.2,0.748l0.427,3.126l-2.922,1.19c-0.249,0.102-0.447,0.3-0.549,0.549  l-1.19,2.922l-3.125-0.427c-0.266-0.037-0.535,0.036-0.748,0.2L49,61.735l-2.495-1.932c-0.176-0.137-0.392-0.209-0.612-0.209  c-0.045,0-0.09,0.003-0.135,0.009l-3.126,0.427l-1.19-2.922c-0.102-0.249-0.3-0.447-0.549-0.549l-2.922-1.19l0.427-3.126  c0.037-0.266-0.036-0.535-0.2-0.748L36.265,49l1.932-2.495c0.165-0.212,0.237-0.481,0.2-0.748l-0.427-3.126l2.922-1.19  c0.249-0.102,0.447-0.3,0.549-0.549l1.19-2.922l3.125,0.427c0.266,0.039,0.536-0.036,0.748-0.2L49,36.265l2.495,1.932  c0.212,0.165,0.482,0.24,0.748,0.2l3.126-0.427l1.19,2.922c0.102,0.249,0.3,0.447,0.549,0.549l2.922,1.19l-0.427,3.125  c-0.037,0.266,0.036,0.535,0.2,0.748L61.735,49L59.803,51.495z"/>
<rect x="41.929" y="48" transform="matrix(0.7071 -0.7071 0.7071 0.7071 -20.2965 49)" style="fill:#1F2833;" width="14.142" height="2"/>
<path style="fill:#1F2833;" d="M48,45c0-1.654-1.346-3-3-3s-3,1.346-3,3s1.346,3,3,3S48,46.654,48,45z M44,45c0-0.551,0.449-1,1-1  s1,0.449,1,1s-0.449,1-1,1S44,45.551,44,45z"/>
<path style="fill:#1F2833;" d="M53,50c-1.654,0-3,1.346-3,3s1.346,3,3,3s3-1.346,3-3S54.654,50,53,50z M53,54c-0.551,0-1-0.449-1-1  s0.449-1,1-1s1,0.449,1,1S53.551,54,53,54z"/>
<path style="fill:#1F2833;" d="M37,34c0-4.411-3.589-8-8-8c-1.458,0-2.822,0.398-4,1.082C23.822,26.398,22.458,26,21,26  c-4.411,0-8,3.589-8,8s3.589,8,8,8c1.458,0,2.822-0.398,4-1.082C26.178,41.602,27.542,42,29,42C33.411,42,37,38.411,37,34z M21,40  c-3.309,0-6-2.691-6-6s2.691-6,6-6c0.798,0,1.559,0.16,2.257,0.444C21.863,29.885,21,31.842,21,34s0.863,4.115,2.257,5.556  C22.559,39.84,21.798,40,21,40z M25,38.46c-1.224-1.099-2-2.688-2-4.46s0.776-3.36,2-4.46c1.224,1.099,2,2.688,2,4.46  S26.224,37.36,25,38.46z M29,40c-0.798,0-1.559-0.16-2.257-0.444C28.137,38.115,29,36.158,29,34s-0.863-4.115-2.257-5.556  C27.441,28.16,28.202,28,29,28c3.309,0,6,2.691,6,6S32.309,40,29,40z"/>
<rect x="18" y="44" style="fill:#1F2833;" width="2" height="2"/>
<rect x="22" y="44" style="fill:#1F2833;" width="2" height="2"/>
<rect x="26" y="44" style="fill:#1F2833;" width="2" height="2"/>
<rect x="30" y="44" style="fill:#1F2833;" width="2" height="2"/>
<rect x="38" y="11" style="fill:#1F2833;" width="2" height="2"/>
<rect x="42" y="11" style="fill:#1F2833;" width="2" height="2"/>
<rect x="46" y="11" style="fill:#1F2833;" width="2" height="2"/>
<rect x="50" y="11" style="fill:#1F2833;" width="2" height="2"/>
<rect x="54" y="11" style="fill:#1F2833;" width="2" height="2"/>
<rect x="54" y="15" style="fill:#1F2833;" width="2" height="2"/>
<rect x="54" y="19" style="fill:#1F2833;" width="2" height="2"/>
<rect x="54" y="23" style="fill:#1F2833;" width="2" height="2"/>
<rect x="54" y="27" style="fill:#1F2833;" width="2" height="2"/>
<rect x="54" y="31" style="fill:#1F2833;" width="2" height="2"/>
</svg>
